REM DIRINDEX 1\4,1\2\5,1\2\6,1\2\7,1\3\8,1\3\9,1\3\10,1\3\11
REM DIRNAME cjc108,folder01,folder02,folder03,folder04,folder05,folder06,folder07,folder08,folder09,folder10
TITLE ""
FILE "t_k_191-201.mp3" MP3
  TRACK 01 AUDIO
    TITLE "5:cjc108_0573"
    INDEX 01 00:00:00
  TRACK 02 AUDIO
    TITLE "0:"
    INDEX 01 00:01:13
  TRACK 03 AUDIO
    TITLE "6:cjc108_0574"
    INDEX 01 00:01:42
  TRACK 04 AUDIO
    TITLE "0:"
    INDEX 01 00:02:71
  TRACK 05 AUDIO
    TITLE "7:cjc108_0575"
    INDEX 01 00:03:12
  TRACK 06 AUDIO
    TITLE "0:"
    INDEX 01 00:08:64
  TRACK 07 AUDIO
    TITLE "5:cjc108_0576"
    INDEX 01 00:09:44
  TRACK 08 AUDIO
    TITLE "0:"
    INDEX 01 00:10:70
  TRACK 09 AUDIO
    TITLE "6:cjc108_0577"
    INDEX 01 00:11:11
  TRACK 10 AUDIO
    TITLE "0:"
    INDEX 01 00:13:37
  TRACK 11 AUDIO
    TITLE "7:cjc108_0578"
    INDEX 01 00:13:51
  TRACK 12 AUDIO
    TITLE "0:"
    INDEX 01 00:17:59
  TRACK 13 AUDIO
    TITLE "5:cjc108_0579"
    INDEX 01 00:18:44
  TRACK 14 AUDIO
    TITLE "0:"
    INDEX 01 00:19:65
  TRACK 15 AUDIO
    TITLE "6:cjc108_0580"
    INDEX 01 00:20:10
  TRACK 16 AUDIO
    TITLE "0:"
    INDEX 01 00:22:50
  TRACK 17 AUDIO
    TITLE "7:cjc108_0581"
    INDEX 01 00:23:03
  TRACK 18 AUDIO
    TITLE "0:"
    INDEX 01 00:28:57
  TRACK 19 AUDIO
    TITLE "5:cjc108_0582"
    INDEX 01 00:29:50
  TRACK 20 AUDIO
    TITLE "0:"
    INDEX 01 00:30:65
  TRACK 21 AUDIO
    TITLE "6:cjc108_0583"
    INDEX 01 00:31:04
  TRACK 22 AUDIO
    TITLE "0:"
    INDEX 01 00:33:05
  TRACK 23 AUDIO
    TITLE "7:cjc108_0584"
    INDEX 01 00:33:30
  TRACK 24 AUDIO
    TITLE "0:"
    INDEX 01 00:38:22
  TRACK 25 AUDIO
    TITLE "5:cjc108_0585"
    INDEX 01 00:39:02
  TRACK 26 AUDIO
    TITLE "0:"
    INDEX 01 00:40:21
  TRACK 27 AUDIO
    TITLE "6:cjc108_0586"
    INDEX 01 00:40:48
  TRACK 28 AUDIO
    TITLE "0:"
    INDEX 01 00:42:08
  TRACK 29 AUDIO
    TITLE "7:cjc108_0587"
    INDEX 01 00:42:23
  TRACK 30 AUDIO
    TITLE "0:"
    INDEX 01 00:47:38
  TRACK 31 AUDIO
    TITLE "5:cjc108_0588"
    INDEX 01 00:48:20
  TRACK 32 AUDIO
    TITLE "0:"
    INDEX 01 00:49:45
  TRACK 33 AUDIO
    TITLE "6:cjc108_0589"
    INDEX 01 00:49:53
  TRACK 34 AUDIO
    TITLE "0:"
    INDEX 01 00:51:71
  TRACK 35 AUDIO
    TITLE "7:cjc108_0590"
    INDEX 01 00:52:10
  TRACK 36 AUDIO
    TITLE "0:"
    INDEX 01 00:58:67
  TRACK 37 AUDIO
    TITLE "5:cjc108_0591"
    INDEX 01 00:59:59
  TRACK 38 AUDIO
    TITLE "0:"
    INDEX 01 01:01:05
  TRACK 39 AUDIO
    TITLE "6:cjc108_0592"
    INDEX 01 01:01:31
  TRACK 40 AUDIO
    TITLE "0:"
    INDEX 01 01:03:18
  TRACK 41 AUDIO
    TITLE "7:cjc108_0593"
    INDEX 01 01:03:31
  TRACK 42 AUDIO
    TITLE "0:"
    INDEX 01 01:08:15
  TRACK 43 AUDIO
    TITLE "5:cjc108_0594"
    INDEX 01 01:08:74
  TRACK 44 AUDIO
    TITLE "0:"
    INDEX 01 01:10:20
  TRACK 45 AUDIO
    TITLE "6:cjc108_0595"
    INDEX 01 01:10:33
  TRACK 46 AUDIO
    TITLE "0:"
    INDEX 01 01:12:23
  TRACK 47 AUDIO
    TITLE "7:cjc108_0596"
    INDEX 01 01:12:36
  TRACK 48 AUDIO
    TITLE "0:"
    INDEX 01 01:17:06
  TRACK 49 AUDIO
    TITLE "5:cjc108_0597"
    INDEX 01 01:17:61
  TRACK 50 AUDIO
    TITLE "0:"
    INDEX 01 01:19:11
  TRACK 51 AUDIO
    TITLE "6:cjc108_0598"
    INDEX 01 01:19:25
  TRACK 52 AUDIO
    TITLE "0:"
    INDEX 01 01:20:44
  TRACK 53 AUDIO
    TITLE "7:cjc108_0599"
    INDEX 01 01:20:69
  TRACK 54 AUDIO
    TITLE "0:"
    INDEX 01 01:27:46
  TRACK 55 AUDIO
    TITLE "5:cjc108_0600"
    INDEX 01 01:28:25
  TRACK 56 AUDIO
    TITLE "0:"
    INDEX 01 01:29:35
  TRACK 57 AUDIO
    TITLE "6:cjc108_0601"
    INDEX 01 01:29:56
  TRACK 58 AUDIO
    TITLE "0:"
    INDEX 01 01:32:02
  TRACK 59 AUDIO
    TITLE "7:cjc108_0602"
    INDEX 01 01:32:25
  TRACK 60 AUDIO
    TITLE "0:"
    INDEX 01 01:39:14
  TRACK 61 AUDIO
    TITLE "5:cjc108_0603"
    INDEX 01 01:39:72
  TRACK 62 AUDIO
    TITLE "0:"
    INDEX 01 01:41:01
  TRACK 63 AUDIO
    TITLE "6:cjc108_0604"
    INDEX 01 01:41:12
  TRACK 64 AUDIO
    TITLE "0:"
    INDEX 01 01:42:12
  TRACK 65 AUDIO
    TITLE "7:cjc108_0605"
    INDEX 01 01:42:33
  TRACK 66 AUDIO
    TITLE "0:"
    INDEX 01 01:50:11
